<svg width="40" height="40" viewBox="0 0 40 40" fill="none" xmlns="http://www.w3.org/2000/svg">
<rect width="40" height="40" rx="8" fill="#1A1A1A"/>
<path d="M13.4003 24.5178L19.3668 27.8476C19.7811 28.0811 20.203 28.0811 20.6173 27.8476L26.5838 24.5178C27.3146 24.111 27.6762 23.6891 27.6762 22.6269V16.5172C27.6762 15.7187 27.3749 15.2139 26.6968 14.8297L21.4008 11.8615C20.4742 11.3417 19.5174 11.3417 18.5833 11.8615L13.2872 14.8297C12.6168 15.2139 12.3154 15.7187 12.3154 16.5172V22.6269C12.3154 23.6891 12.677 24.111 13.4003 24.5178ZM23.5253 16.9542L17.958 13.8428L19.1935 13.1498C19.7359 12.8409 20.2482 12.8334 20.7981 13.1498L25.5442 15.8241L23.5253 16.9542ZM19.992 18.9279L14.4474 15.8241L16.5266 14.6414L22.0864 17.7527L19.992 18.9279ZM14.2289 23.3501C13.8146 23.1166 13.6715 22.883 13.6715 22.4837V17.0144L19.2839 20.1785V26.2053L14.2289 23.3501ZM25.7627 23.3501L20.7002 26.2053V20.1785L26.3126 17.0144V22.4837C26.3126 22.883 26.1695 23.1166 25.7627 23.3501Z" fill="white"/>
</svg>
